<svg height="32" width="32" xmlns="http://www.w3.org/2000/svg"><title>Swopstakes is 18+ only</title> <g fill="#FFF" fill-rule="nonzero"> <path d="M10.5 21.9v-8.7H8.4v-2.3h5v11zM23.7 13c0 1-.6 1.7-1.4 2.2 1.2.5 2 1.5 2 2.7 0 2-1.8 3.2-4.6 3.2S15 19.8 15 17.9c0-1.2.8-2.2 2.1-2.7-1-.5-1.6-1.4-1.6-2.3 0-1.7 1.6-2.8 4-2.8 2.5 0 4 1.1 4 2.9zm-6 4.7c0 .9.7 1.4 2 1.4 1.2 0 1.9-.5 1.9-1.4 0-1-.7-1.4-2-1.4-1.2 0-1.8.5-1.8 1.4zM18 13c0 .8.6 1.2 1.7 1.2 1 0 1.6-.4 1.6-1.2 0-.8-.6-1.2-1.6-1.2S18 12.3 18 13z"></path> <path d="M28.3 11.8A13.2 13.2 0 0116 29.2a13.2 13.2 0 114.2-25.7v-3A16 16 0 1016 32a16 16 0 0015.3-20.1h-2.9z"></path> <path d="M27.9 3.9V.8h-2.2v3.1h-3.1v2.3h3.1v3.1h2.2V6.2H31V3.9z"></path> </g></svg>