<svg height="32" width="102" xmlns="http://www.w3.org/2000/svg"><title>Download the Swopstakes Android App</title><path d="M8.3 13.83c0-.43-.16-.77-.54-.98-.77-.43-1.6.12-1.62 1.07v4.27c0 .72.47 1.2 1.1 1.2.63 0 1.04-.46 1.06-1.18v-4.38zm13-.07a1.08 1.08 0 0 0-2.16 0v4.6c0 .5.34.86.8.98.7.18 1.33-.3 1.35-1.1v-4.5zm-3.14-1.32c.52 0 .58-.04.5-.55a5.7 5.7 0 0 0-.42-1.4 3.86 3.86 0 0 0-1.74-1.8c-.26-.14-.3-.27-.13-.5.22-.3.4-.6.58-.9.04-.07 0-.18 0-.26-.1.02-.22.02-.26.07l-.6.9c-.16.25-.3.33-.63.22a5.32 5.32 0 0 0-3.46.01c-.33.12-.48.01-.62-.24l-.6-.9c-.03-.05-.16-.03-.24-.05-.01.07-.05.16-.02.2.12.23.26.44.4.66.35.6.34.58-.22.95a3.83 3.83 0 0 0-1.85 3.01c-.05.56-.04.57.53.57h8.8zm-8.8.45c-.5 0-.52 0-.52.52v6.63c.02.66.38 1 1.05 1.04.18 0 .36.02.54 0 .35-.04.45.12.44.44v1.96c.02.26.1.56.25.76.28.35.7.45 1.13.3.4-.14.7-.42.7-.86.04-.57.02-1.14.03-1.7.02-1.03-.12-.87.88-.9.57 0 .58 0 .58.6v1.83c.01.48.24.84.7 1.02.72.28 1.44-.2 1.47-1.05v-2c0-.27.07-.42.37-.4h.36c.95 0 1.3-.34 1.3-1.3v-6.32c0-.57-.01-.57-.6-.57H9.36zM0 3.32l.1-.37A3.82 3.82 0 0 1 2.88.11L3.1 0h95.6l.24.1a3.9 3.9 0 0 1 2.76 2.74l.1.24v25.6l-.1.37a3.74 3.74 0 0 1-2.88 2.84l-.37.1H3.36l-.38-.1a3.74 3.74 0 0 1-2.87-2.85l-.1-.37V3.32zm16.03 7.4a.44.44 0 0 1-.47-.41c0-.28.16-.45.43-.47.28-.02.43.16.47.43 0 .28-.15.43-.43.46zm-4.56 0c-.26.02-.45-.12-.5-.4a.45.45 0 0 1 .46-.48c.28 0 .43.17.47.44-.02.27-.17.43-.44.45zm15.27-4.9v5.54h2.1c.42 0 .75-.04 1-.1.33-.1.6-.26.78-.45.26-.25.46-.57.6-.98.1-.33.17-.72.17-1.18 0-.52-.06-.96-.18-1.3-.13-.36-.3-.66-.53-.9a1.86 1.86 0 0 0-.84-.51 4 4 0 0 0-1.06-.1h-2.05zm1.12.93h.5c.46 0 .77.02.93.05.2.05.38.14.52.26.13.13.24.3.32.54.07.23.1.56.1 1 0 .42-.03.76-.1 1-.08.26-.18.44-.3.54-.12.1-.27.2-.45.23-.14.04-.37.06-.68.06h-.84V6.75zM32.1 9.3c0 .46.1.85.27 1.17a1.63 1.63 0 0 0 .76.73c.33.17.7.25 1.05.25a2 2 0 0 0 1.49-.6c.4-.4.6-.9.6-1.5a2 2 0 0 0-2.08-2.1 2.23 2.23 0 0 0-1.07.26 1.8 1.8 0 0 0-.74.76c-.18.33-.27.67-.27 1.03zm1.1.05c0-.4.1-.7.28-.9a.9.9 0 0 1 .7-.32c.28 0 .5.1.7.32.2.2.28.5.28.9 0 .4-.1.72-.28.93a.9.9 0 0 1-.7.32.9.9 0 0 1-.7-.32c-.2-.2-.28-.52-.28-.92zm4.64 2h1.03l.7-2.58.7 2.58h1.02l1.3-4.02H41.5l-.77 2.64-.67-2.64h-1.02l-.7 2.64-.75-2.64h-1.03l1.27 4.02zm8.94 0v-2.5c0-.3-.02-.55-.06-.7a1.15 1.15 0 0 0-.2-.45c-.1-.13-.25-.24-.45-.32a1.6 1.6 0 0 0-.64-.13c-.53 0-.97.23-1.33.68v-.6h-.98v4.02h1.06V9.54c0-.45.03-.76.08-.92.06-.17.16-.3.3-.4.15-.1.3-.16.5-.16.14 0 .27.04.37.1s.17.17.22.3.07.4.07.84v2.05h1.06zm1.08 0h1.07V5.8h-1.07v5.55zm1.9-2.06c0 .46.1.85.26 1.17a1.7 1.7 0 0 0 .77.73c.33.17.68.25 1.05.25a2 2 0 0 0 1.48-.6c.4-.4.6-.9.6-1.5a2 2 0 0 0-2.08-2.1 2.27 2.27 0 0 0-1.08.26 1.8 1.8 0 0 0-.74.76c-.17.33-.26.67-.26 1.03zm1.1.05c0-.4.1-.7.28-.9a.9.9 0 0 1 .7-.32c.27 0 .5.1.7.32.18.2.28.5.28.9 0 .4-.1.72-.28.93a.9.9 0 0 1-.7.32.9.9 0 0 1-.7-.32c-.2-.2-.3-.52-.3-.92zm4.68-.78a.78.78 0 0 1 .26-.4c.1-.07.25-.1.44-.1.28 0 .47.04.57.13.1.08.16.23.16.43v.1c-.2.1-.54.18-1.04.27-.37.07-.65.15-.84.25-.2.1-.35.23-.46.4-.1.2-.16.4-.16.62 0 .34.12.62.35.85.24.22.57.33.98.33.24 0 .46-.04.67-.13a1.95 1.95 0 0 0 .58-.4l.04.13.1.3h1.05a2.19 2.19 0 0 1-.19-.54 4.31 4.31 0 0 1-.05-.78l.01-1.24c0-.46-.05-.78-.14-.95-.1-.18-.26-.32-.5-.43a2.55 2.55 0 0 0-1.05-.17c-.52 0-.92.1-1.18.28a1.5 1.5 0 0 0-.56.86l.96.18zm1.43.86v.2c0 .26-.02.43-.05.52a.67.67 0 0 1-.25.36.92.92 0 0 1-.55.18.58.58 0 0 1-.42-.16.52.52 0 0 1-.17-.38c0-.16.07-.28.2-.38.1-.06.3-.12.6-.2l.65-.16zm5.78 1.93V5.8H61.7v2a1.57 1.57 0 0 0-2.38-.03c-.33.36-.5.88-.5 1.56 0 .66.17 1.18.5 1.56.33.37.72.55 1.18.55.23 0 .46-.05.68-.16a1.68 1.68 0 0 0 .58-.52v.6h1zm-2.84-2.1c0-.4.08-.7.25-.9a.8.8 0 0 1 .64-.3.8.8 0 0 1 .64.3c.17.2.25.55.25 1 0 .42-.1.73-.26.94a.8.8 0 0 1-1.34-.1c-.12-.2-.18-.5-.18-.93zm5.58-1.92v.84h.6v3.18h1.06V8.18h.8v-.84h-.8v-.28c0-.2.04-.35.1-.42.07-.07.18-.1.34-.1a2.01 2.01 0 0 1 .48.05l.15-.74c-.3-.1-.6-.13-.9-.13-.3 0-.53.05-.72.15-.2.1-.33.24-.4.4s-.1.42-.1.76v.3h-.6zm2.8 1.96c0 .46.1.85.26 1.17a1.7 1.7 0 0 0 .77.73c.33.17.68.25 1.05.25a2 2 0 0 0 1.48-.6c.4-.4.6-.9.6-1.5a2 2 0 0 0-2.08-2.1 2.27 2.27 0 0 0-1.08.26 1.8 1.8 0 0 0-.74.76c-.17.33-.26.67-.26 1.03zm1.1.05c0-.4.1-.7.28-.9a.9.9 0 0 1 .7-.32c.28 0 .5.1.7.32.18.2.28.5.28.9 0 .4-.1.72-.28.93a.9.9 0 0 1-.7.32.9.9 0 0 1-.7-.32c-.2-.2-.3-.52-.3-.92zm4.9 2v-1.24c0-.68.04-1.13.1-1.35.05-.2.14-.36.24-.44A.6.6 0 0 1 75 8.2c.15 0 .32.06.5.18l.33-.93c-.23-.13-.46-.2-.7-.2a.84.84 0 0 0-.46.13c-.14.08-.3.26-.46.53v-.57h-1v4.02h1.07zM37.34 25.64l-4.45-11.1h-2.4l-4.33 11.1h2.38l.92-2.52h4.44l.97 2.53h2.44zm-4.13-4.4h-3.03l1.5-4.12 1.53 4.12zm12.9 4.4v-5c0-.62-.03-1.1-.1-1.44a2.35 2.35 0 0 0-.43-.89c-.2-.26-.5-.48-.88-.65a3.2 3.2 0 0 0-1.29-.25c-1.06 0-1.94.45-2.65 1.36V17.6H38.8v8.05h2.12V22c0-.9.06-1.5.17-1.85.1-.33.3-.6.6-.8s.62-.3 1-.3c.28 0 .53.07.73.2s.35.34.44.6c.1.25.14.8.14 1.68v4.1h2.13zm9.84 0v-11.1H53.8v4a3.14 3.14 0 0 0-4.77-.06c-.64.7-.96 1.75-.96 3.1 0 1.34.33 2.38 1 3.12a3.06 3.06 0 0 0 2.38 1.12 3.2 3.2 0 0 0 2.52-1.36v1.18h1.97zm-5.68-4.2c0-.8.17-1.4.5-1.8.35-.4.77-.6 1.28-.6a1.6 1.6 0 0 1 1.28.6c.33.4.5 1.08.5 2 0 .83-.18 1.45-.52 1.87a1.6 1.6 0 0 1-2.69-.2c-.24-.4-.35-1-.35-1.87zm10.1 4.2v-2.5c0-1.37.06-2.27.18-2.7.12-.42.28-.72.5-.9.2-.16.45-.24.75-.24s.64.1 1 .35l.66-1.86a2.7 2.7 0 0 0-1.4-.4c-.35 0-.65.08-.92.26-.27.17-.58.52-.92 1.06V17.6h-1.97v8.05h2.13zm3.8-4.14c0 .92.18 1.7.53 2.35.34.65.85 1.13 1.52 1.47.67.33 1.38.5 2.1.5 1.2 0 2.18-.4 2.97-1.2.78-.8 1.18-1.8 1.18-3.03a4.02 4.02 0 0 0-4.16-4.18c-.8 0-1.5.17-2.14.52a3.56 3.56 0 0 0-1.48 1.52 4.35 4.35 0 0 0-.53 2.05zm2.2.1c0-.8.18-1.4.56-1.83a1.8 1.8 0 0 1 1.4-.64 1.8 1.8 0 0 1 1.4.64c.38.42.57 1.03.57 1.82 0 .8-.2 1.42-.57 1.85a1.8 1.8 0 0 1-1.4.63 1.8 1.8 0 0 1-1.4-.63c-.38-.43-.56-1.04-.56-1.84zm8.07-5.1h2.13v-1.97h-2.13v1.97zm0 9.14h2.13V17.6h-2.13v8.05zm11.98 0v-11.1H84.3v4a3.14 3.14 0 0 0-4.77-.06c-.64.7-.96 1.75-.96 3.1 0 1.34.33 2.38 1 3.12a3.06 3.06 0 0 0 2.37 1.12 3.2 3.2 0 0 0 2.52-1.36v1.18h1.97zm-5.68-4.2c0-.8.17-1.4.5-1.8.35-.4.77-.6 1.27-.6.52 0 .95.2 1.28.6.34.4.5 1.08.5 2 0 .83-.17 1.45-.5 1.87a1.6 1.6 0 0 1-2.69-.2c-.24-.4-.36-1-.36-1.87z"></path><a xmlns="http://www.w3.org/2000/svg" id="anchor" xlink:href="https://swopstakes.com/mobile-app/" xmlns:xlink="http://www.w3.org/1999/xlink" target="_top"> <rect x="0" y="0" width="100%" height="100%" fill-opacity="0"/></a></svg>
