<svg height="32" width="102" xmlns="http://www.w3.org/2000/svg"><title>Swopstakes Apple App coming soon</title><path d="M98.9.01c1.12 0 2 .56 2.6 1.5.37.57.5 1.2.5 1.86v22.34l-.01 2.9c0 .38-.05.76-.15 1.12a3 3 0 01-1.52 1.87c-.52.29-1.08.4-1.67.4H3.3a3.18 3.18 0 01-2.88-1.62A3.28 3.28 0 010 28.62V16.07 3.41A3.2 3.2 0 013.3 0h44.78L98.9.01z" fill="#EAEAEA"></path><path d="M20.37 13.75v11.47c0 .72-.3 1.25-.88 1.64-.3.2-.63.28-.98.28h-7.89c-.79 0-1.49-.46-1.76-1.19-.09-.25-.13-.53-.13-.8v-9.3-8.12c0-.7.3-1.23.87-1.61.33-.23.7-.3 1.1-.3h7.7c.7 0 1.27.25 1.67.84.22.33.3.68.3 1.07v6.02zM9.7 9.68V23.46c0 .16.03.23.2.23h9.41c.16 0 .22-.05.22-.22V9.7c0-.3-.01-.3-.32-.3H9.98c-.27 0-.28 0-.28.28zm4.9 14.48a1.1 1.1 0 00-1.1 1.11c-.04.61.53 1.14 1.12 1.12a1.14 1.14 0 001.11-1.14c0-.59-.53-1.1-1.13-1.1zm-.88-15.97h1.79c.13 0 .22-.06.22-.17 0-.07-.07-.17-.13-.22-.05-.04-.14-.04-.2-.04h-1.55l-.18.01c-.12.04-.2.12-.18.25.01.14.1.17.23.17zm18.03 3.66h-1.22l-.48-1.26h-2.22l-.46 1.26h-1.19l2.16-5.55h1.19l2.22 5.55zm-2.06-2.2l-.77-2.06-.75 2.06h1.52zm2.62-1.82h1v.59a1.49 1.49 0 011.25-.69c.46 0 .86.19 1.19.55.32.37.48.88.48 1.53 0 .68-.16 1.2-.49 1.57a1.53 1.53 0 01-1.8.43 2.04 2.04 0 01-.56-.46v2.03H32.3V7.83zm1.05 1.94c0 .45.1.78.27 1 .18.22.4.32.66.32.25 0 .45-.1.62-.3.16-.2.24-.52.24-.97 0-.42-.08-.73-.25-.94a.79.79 0 00-.63-.3c-.26 0-.48.1-.65.3-.17.2-.26.5-.26.89zm3.69-1.94h1v.59a1.49 1.49 0 011.25-.69c.46 0 .86.19 1.18.55.33.37.5.88.5 1.53 0 .68-.17 1.2-.5 1.57a1.53 1.53 0 01-1.8.43 2.04 2.04 0 01-.57-.46v2.03h-1.06V7.83zm1.05 1.94c0 .45.1.78.27 1 .18.22.4.32.66.32.24 0 .45-.1.61-.3.17-.2.25-.52.25-.97 0-.42-.08-.73-.25-.94a.79.79 0 00-.63-.3c-.26 0-.48.1-.65.3-.17.2-.26.5-.26.89zm3.72 2.08V6.3h1.06v5.55h-1.06zm4.48-1.28l1.06.18c-.13.39-.35.68-.64.88-.3.2-.66.3-1.1.3-.7 0-1.22-.22-1.56-.68a2.3 2.3 0 01-.4-1.38c0-.67.18-1.2.53-1.57.34-.38.78-.57 1.32-.57.6 0 1.07.2 1.41.6.35.4.52 1 .5 1.81h-2.67c.01.32.1.57.26.74a.8.8 0 00.62.26c.16 0 .3-.04.42-.13.1-.1.2-.24.25-.44zm.06-1.08c0-.3-.08-.54-.23-.7a.73.73 0 00-.56-.24.74.74 0 00-.57.25.98.98 0 00-.23.7h1.6zm4.88-.44l-.97-.17c.11-.39.3-.68.56-.86.27-.2.66-.29 1.19-.29.47 0 .82.06 1.06.17.23.12.4.26.49.43.1.17.14.5.14.95l-.01 1.25c0 .35.01.61.05.78.03.17.1.35.19.54h-1.05a3.91 3.91 0 01-.14-.44c-.19.18-.38.3-.59.4-.2.09-.43.13-.66.13-.41 0-.74-.11-.98-.34-.24-.22-.36-.5-.36-.85 0-.23.06-.43.17-.6.1-.19.26-.32.45-.42.2-.1.48-.17.85-.25.5-.09.84-.18 1.03-.26v-.1c0-.2-.05-.35-.15-.44-.1-.09-.29-.13-.57-.13a.76.76 0 00-.44.11c-.11.08-.2.2-.26.4zm1.42.87c-.13.04-.35.1-.64.16-.3.06-.5.12-.58.19-.14.1-.21.22-.21.37s.05.28.16.39c.12.1.26.16.43.16.19 0 .37-.06.55-.19.13-.1.21-.21.25-.35.03-.1.04-.27.04-.52v-.21zm2.07-2.1h.99v.6a1.49 1.49 0 011.25-.69c.47 0 .87.19 1.2.55.32.37.48.88.48 1.53 0 .68-.16 1.2-.5 1.57a1.53 1.53 0 01-1.79.43 2.04 2.04 0 01-.57-.46v2.03h-1.06V7.83zm1.05 1.95c0 .45.09.78.27 1 .18.22.4.32.65.32s.46-.1.62-.3c.17-.2.25-.52.25-.97 0-.42-.09-.73-.26-.94a.79.79 0 00-.62-.3c-.26 0-.48.1-.65.3-.17.2-.26.5-.26.89zm3.69-1.94h.99v.59a1.49 1.49 0 011.25-.69c.47 0 .87.19 1.2.55.32.37.48.88.48 1.53 0 .68-.16 1.2-.5 1.57a1.53 1.53 0 01-1.79.43 2.04 2.04 0 01-.57-.46v2.03h-1.06V7.83zm1.05 1.94c0 .45.09.78.27 1 .18.22.4.32.65.32s.46-.1.62-.3c.16-.2.25-.52.25-.97 0-.42-.09-.73-.26-.94a.79.79 0 00-.63-.3c-.26 0-.47.1-.64.3-.18.2-.26.5-.26.89zm9.38-.75l-1.05.18a.76.76 0 00-.24-.47.73.73 0 00-.49-.16.8.8 0 00-.63.28c-.16.18-.24.49-.24.92 0 .47.08.81.24 1 .16.2.38.3.65.3.2 0 .36-.06.5-.17.12-.12.21-.31.27-.6l1.04.18c-.1.48-.32.85-.62 1.1-.31.24-.73.36-1.24.36-.6 0-1.06-.19-1.41-.56a2.16 2.16 0 01-.52-1.54c0-.66.17-1.18.52-1.55.35-.37.83-.56 1.43-.56.49 0 .88.11 1.16.32.3.21.5.53.63.97zm.56.76c0-.35.09-.7.26-1.03.17-.33.42-.58.74-.75a2.2 2.2 0 011.07-.27 2 2 0 012.08 2.1c0 .6-.2 1.1-.59 1.5a2 2 0 01-1.48.6c-.37 0-.72-.07-1.06-.24a1.71 1.71 0 01-.76-.73 2.44 2.44 0 01-.26-1.18zm1.09.06c0 .4.1.7.28.91a.9.9 0 00.7.32.9.9 0 00.7-.32c.2-.2.29-.52.29-.92s-.1-.7-.29-.91a.9.9 0 00-.7-.32.9.9 0 00-.7.32c-.19.21-.28.52-.28.92zm3.81-2.01h.98v.54c.36-.42.77-.64 1.26-.64.26 0 .48.06.67.16.19.11.34.27.46.49.18-.22.37-.38.58-.49.2-.1.42-.16.65-.16.3 0 .55.06.75.18.2.12.36.3.46.53.07.17.11.45.11.84v2.57h-1.06v-2.3c0-.4-.04-.66-.11-.77-.1-.16-.25-.23-.46-.23a.73.73 0 00-.42.14.76.76 0 00-.28.4c-.06.17-.09.45-.09.83v1.93H77.8v-2.2c0-.4-.02-.65-.06-.76a.48.48 0 00-.18-.26.56.56 0 00-.32-.08.78.78 0 00-.44.13.73.73 0 00-.29.38c-.05.17-.08.45-.08.83v1.96h-1.07V7.83zm6.98-.55V6.3h1.07v.98h-1.07zm0 4.57V7.83h1.07v4.02h-1.07zm5.82 0h-1.07V9.8c0-.44-.02-.72-.07-.85a.6.6 0 00-.59-.4.85.85 0 00-.5.15.76.76 0 00-.3.4c-.05.17-.08.48-.08.93v1.82H84.5V7.83h.99v.59c.35-.46.79-.69 1.32-.69.24 0 .45.05.65.13.2.09.34.2.44.33.1.13.17.28.2.44.05.17.07.4.07.72v2.5zm.98.26l1.21.15c.02.14.07.24.14.3.1.07.26.1.48.1.28 0 .49-.03.62-.12.1-.05.17-.14.22-.27.03-.09.05-.25.05-.49v-.58a1.48 1.48 0 01-2.49-.03A2.33 2.33 0 0189 9.8c0-.67.16-1.18.48-1.54.33-.36.73-.54 1.21-.54.5 0 .91.22 1.23.66v-.56h1v3.6c0 .48-.04.84-.12 1.07-.08.23-.19.42-.33.55-.14.14-.33.24-.56.32-.24.07-.54.11-.9.11-.68 0-1.16-.12-1.45-.35a1.1 1.1 0 01-.43-.89v-.13zm.95-2.36c0 .43.08.74.25.94.16.2.36.3.6.3.27 0 .49-.1.67-.3.18-.21.27-.51.27-.91 0-.42-.1-.73-.26-.93a.82.82 0 00-.65-.3c-.26 0-.47.1-.63.3-.17.2-.25.5-.25.9zM26.74 22.02l2.18-.2c.14.72.4 1.26.8 1.6.4.35.95.52 1.63.52.72 0 1.26-.15 1.63-.46.37-.3.55-.66.55-1.07 0-.26-.08-.49-.23-.67a1.85 1.85 0 00-.8-.48c-.27-.1-.87-.25-1.8-.49a6.1 6.1 0 01-2.53-1.1 2.89 2.89 0 01-.55-3.82c.33-.49.79-.87 1.4-1.12.6-.26 1.32-.39 2.18-.39 1.4 0 2.44.3 3.14.92.7.6 1.08 1.42 1.11 2.44l-2.24.1c-.1-.57-.3-.98-.62-1.23-.31-.25-.78-.37-1.42-.37-.65 0-1.16.13-1.53.4a.8.8 0 00-.35.69c0 .26.1.49.33.67.28.24.97.49 2.06.74 1.1.26 1.9.53 2.42.8.53.28.93.66 1.23 1.13.3.48.44 1.07.44 1.77a3.27 3.27 0 01-2.03 3.03c-.64.27-1.45.4-2.41.4-1.4 0-2.49-.32-3.24-.97a4.23 4.23 0 01-1.35-2.84zm10.7-.52c0-.7.18-1.4.53-2.05.34-.66.84-1.17 1.48-1.52a4.4 4.4 0 012.14-.52 4.02 4.02 0 014.16 4.18c0 1.22-.4 2.23-1.18 3.03-.79.8-1.78 1.2-2.97 1.2-.74 0-1.44-.17-2.1-.5a3.43 3.43 0 01-1.53-1.47 4.88 4.88 0 01-.53-2.35zm2.18.11c0 .8.2 1.41.57 1.84.38.42.85.63 1.4.63a1.8 1.8 0 001.4-.63c.38-.43.57-1.04.57-1.85 0-.79-.2-1.4-.57-1.82a1.8 1.8 0 00-1.4-.64 1.8 1.8 0 00-1.4.64c-.38.42-.57 1.04-.57 1.83zm7.6-.11c0-.7.16-1.4.51-2.05.35-.66.85-1.17 1.48-1.52a4.4 4.4 0 012.14-.52 4.02 4.02 0 014.16 4.18c0 1.22-.39 2.23-1.17 3.03-.79.8-1.78 1.2-2.97 1.2-.74 0-1.44-.17-2.11-.5a3.43 3.43 0 01-1.53-1.47 4.88 4.88 0 01-.52-2.35zm2.17.11c0 .8.2 1.41.57 1.84.38.42.85.63 1.4.63a1.8 1.8 0 001.4-.63c.38-.43.56-1.04.56-1.85 0-.79-.18-1.4-.56-1.82a1.8 1.8 0 00-1.4-.64 1.8 1.8 0 00-1.4.64c-.38.42-.57 1.04-.57 1.83zm15.4 4.03h-2.13v-4.11c0-.87-.04-1.43-.14-1.69a1.18 1.18 0 00-1.18-.8c-.37 0-.7.1-.99.3-.3.2-.5.47-.6.8-.11.34-.17.95-.17 1.85v3.65h-2.12v-8.05h1.97v1.18c.7-.9 1.59-1.36 2.65-1.36.47 0 .9.08 1.3.25.38.17.68.39.88.65.2.26.33.56.41.9.08.33.12.8.12 1.43v5z" fill="#989898"></path></svg>