<svg height="32" width="32" xmlns="http://www.w3.org/2000/svg"><path d="M15.4 0h1.2l1.8.2h.5l.7.3.7.1a25.9 25.9 0 013.6 1.6A20.8 20.8 0 0126.5 4a16.4 16.4 0 013.9 5.3l.4.9.2.6.3 1 .2 1 .2 1.1.1 1.4v2.2l-.2 1.1-.1.6-.3 1-.3 1-.4 1-.8 1.7a23.3 23.3 0 01-2 2.8L26.3 28a11.8 11.8 0 01-2.5 1.7 23.7 23.7 0 01-2.4 1.2 19 19 0 01-1.7.5l-.7.2-1 .2h-1.5l-.2.1h-.8-.1l-1.3-.1-.7-.1H13l-.8-.3-.7-.1-.9-.4-.8-.2-1-.6a12 12 0 01-3.1-2A22.6 22.6 0 013 25.4l-1-1.6-.6-1.2c-.2-.2-.3-.4-.3-.7l-.3-.8-.4-1-.1-.7v-.3L0 18v-1.4l-.1-.2v-1-.2L.1 14l.1-.6.2-.9c0-.2 0-.4.2-.6 0-.4.2-.7.3-1l.4-1 .5-1.1c.3-.6.5-1.1.9-1.6A18.8 18.8 0 016 3.5l1-.8 1-.5 1-.6 1-.4.8-.3.5-.2.8-.2.8-.2 1-.2h1.4l.1-.1zm.5 3h-2A22 22 0 0011 4a8.9 8.9 0 00-1.8 1c-.5.2-.9.5-1.4.9L6.4 7a17.3 17.3 0 00-1.8 2.6L4 10.8l-.4 1-.2.7-.2.6-.1.9a16.5 16.5 0 00-.1 3.5v.5l.2.9.3 1.1a14 14 0 002.6 4.5l1 1a20.4 20.4 0 002.2 1.8l1.3.6.7.3.9.3.6.2 1.1.2a12.4 12.4 0 003.5 0h.6l.8-.2 1-.2a18.8 18.8 0 002.8-1.3l1-.7a17.1 17.1 0 002.3-2.2 15.3 15.3 0 002.5-4.5l.2-1 .2-1.3.1-1.5v-.8l-.1-1v-.6l-.3-1-.3-1-.4-1-.7-1.3c-.4-.7-.8-1.3-1.3-1.8l-1-1a18.6 18.6 0 00-3.3-2.3l-1-.5-.7-.2-.6-.2-.8-.1-1-.2h-1.5zm-1.4 8.6V7.4c0-.3 0-.6.2-.8a1.4 1.4 0 012.5 0l.2.7v7.8l.1.5 2 1.8 1.5 1.7c.3.3.5.7.5 1-.1.7-.4 1.1-1 1.4h-.9c-.2 0-.5-.2-.6-.4l-1.3-1.3a3320 3320 0 00-2.7-2.7c-.4-.3-.5-.7-.5-1.1v-4.4z" fill="#FFF" fill-rule="nonzero"></path></svg>