<svg height="32" width="32" xmlns="http://www.w3.org/2000/svg"><title>Follow Swopstakes on Instagram</title><path d="M16.08 19.14a3.07 3.07 0 11-.01-6.15 3.07 3.07 0 010 6.15zm3.37-7.09a.45.45 0 01-.45-.45V9.46c0-.25.2-.45.45-.45h2.16c.25 0 .45.2.45.45v2.16c0 .24-.2.44-.45.44h-2.16zM24 22.1V9.9A1.9 1.9 0 0022.1 8H9.9A1.9 1.9 0 008 9.9v12.2c0 1.05.85 1.9 1.9 1.9h12.2a1.9 1.9 0 001.9-1.9zM16 0a16 16 0 110 32 16 16 0 010-32zm5.06 15.28c0-.44-.06-.87-.18-1.28h1.5v6.96c0 .24-.2.45-.45.45H10.45a.45.45 0 01-.45-.45V14h1.5a4.87 4.87 0 109.56 1.28z"></path><a xmlns="http://www.w3.org/2000/svg" id="anchor" xlink:href="https://www.instagram.com/swopstakes/" xmlns:xlink="http://www.w3.org/1999/xlink" target="_top"> <rect x="0" y="0" width="100%" height="100%" fill-opacity="0"/></a></svg>