<svg xmlns="http://www.w3.org/2000/svg" width="48" height="48"><path fill="#000" fill-rule="evenodd" d="M6.25 16.22v22.63c0 .26.01.53.08.78.2.7.88 1.16 1.67 1.16.78 0 1.45-.44 1.65-1.13.07-.24.1-.52.1-.78V16.22h-3.5zM41.84 7.3H12.99V38.88c0 .52-.02 1.04-.18 1.54-.04.14-.1.26-.15.41h27.37c.39-.02.74-.12 1.05-.37a2 2 0 00.77-1.68c-.02-10.4-.01-20.8-.01-31.2V7.3zM3 39.39V14.36l.03-.03c.26-.9.78-1.3 1.72-1.3h5v-.3-6.97c0-.24.03-.48.1-.7.21-.68.83-1.06 1.68-1.06H43.3A1.63 1.63 0 0145 5.7V39.06a4.67 4.67 0 01-1.82 3.72 5.1 5.1 0 01-3.3 1.11H8.3c-.08 0-.18-.03-.23 0-.2.15-.42.09-.62.06a4.9 4.9 0 01-4.05-3.12c-.2-.45-.27-.97-.4-1.45zm13.95-22.94h20.93v-4.93H16.95v4.93zm10.48 2l-11.3-.01c-.16 0-.34-.02-.5-.07-.4-.14-.62-.5-.62-.98v-6.8c0-.45.23-.8.62-.95.12-.04.25-.11.4 0 .05.05.16.03.24.03h22.4c.14 0 .3 0 .44.03.4.1.7.47.71.89v.2c0 2.16-.01 4.33.01 6.5.01.8-.52 1.16-1.15 1.16-3.75-.02-7.5 0-11.25 0zm2.07 7.22h8.39v-3.26h-8.4v3.26zm4.2 1.95h-5.04c-.72 0-1.1-.38-1.1-1.1v-5.08c0-.68.39-1.07 1.08-1.07h10.1c.7 0 1.08.39 1.08 1.07v5.1c0 .7-.39 1.08-1.08 1.08H33.7zm-6.27 10.45H16.14c-.27 0-.52-.03-.75-.2a.97.97 0 01-.34-1.04.99.99 0 01.87-.7H38.73c.33 0 .62.08.85.33.26.3.32.64.17 1a.91.91 0 01-.82.6h-11.5zm0-7.15h11.26c.16 0 .33 0 .49.05.43.14.68.56.64 1.03a.96.96 0 01-.8.83l-.33.02H16.14c-.62 0-1.02-.3-1.11-.82a.96.96 0 01.83-1.1c.1-.02.21-.01.32-.01h11.24zm-6.7-8.53H16c-.66 0-1.12-.57-.97-1.19.1-.4.46-.7.9-.74h9.36c.15 0 .31.02.46.06a.96.96 0 01-.3 1.87h-4.74zm0 3.3h4.7c.73 0 1.2.73.89 1.37a.94.94 0 01-.87.56h-9.4c-.5 0-.89-.28-1-.72a.97.97 0 01.9-1.2l.47-.01h4.3z"/></svg>