<svg xmlns="http://www.w3.org/2000/svg" width="48" height="48"><title>Swopstakes Promotions</title><path d="M16.7 32.16l.13.23c1.53 2.63 3.07 5.26 4.58 7.9.83 1.44.87 2.91.06 4.36a4.26 4.26 0 01-7.53-.13l-4.4-7.66-.1-.18a7.12 7.12 0 01-9.27-5.43 7.19 7.19 0 013.5-7.65l7.79-4.53c.09-.05.17-.12.24-.2L23.93 3.18c.4-.52.84-1 1.46-1.27a3.3 3.3 0 014.22 1.3c.9 1.53 1.78 3.09 2.66 4.63l8.43 14.67a3.4 3.4 0 01-1.16 4.64c-.37.22-.78.36-1.2.43a7951.7 7951.7 0 00-11.19 2.18c-2.38.47-4.78.92-7.16 1.43-.86.18-1.7.5-2.55.75l-.74.22zm2.32-3.73l15.6-3.07-10.3-17.97-.13.14-9.78 12.53c-.09.11-.1.19-.03.32 1.52 2.63 3.03 5.25 4.53 7.89l.1.16zm-2.7 1.09l-4.28-7.46-1.66.97c-1.82 1.06-3.67 2.09-5.47 3.2a4.3 4.3 0 004.47 7.32c1.89-1.08 3.76-2.18 5.65-3.28l1.3-.75zm10.44-25.5a.9.9 0 00-.75.37c-.08.11-.15.23-.25.33-.1.12-.1.22-.02.36l11.51 20.07c.07.12.12.17.27.13.12-.04.25-.05.39-.06a.96.96 0 00.88-.84c.04-.27-.06-.5-.19-.72L28.85 6.67l-1.21-2.11c-.2-.34-.46-.54-.88-.55zM37.9 1c.16.08.35.14.5.26.28.22.37.52.26.87l-1.03 3.33c-.13.42-.44.62-.86.67-.42.05-.78-.08-1.03-.45a.71.71 0 01-.09-.63l1.06-3.4c.1-.32.35-.5.65-.6l.12-.05h.42zm3.84 9.3c-.4-.03-.76-.3-.9-.68-.16-.41-.04-.88.3-1.15.06-.06.14-.11.22-.16l5.13-3.02c.5-.3 1.02-.2 1.32.26.3.47.2 1.09-.26 1.41l-.17.12-5.11 3c-.16.1-.35.15-.53.22zm5.2 6.15c.02.5-.3.93-.74 1a.9.9 0 01-.39-.03l-3.31-1.03c-.42-.13-.63-.43-.68-.84-.06-.41.07-.76.4-1.02a.7.7 0 01.65-.12c1.15.35 2.3.7 3.46 1.07.37.12.6.5.62.97zM12 35.36l.1.18 2.74 4.78 1.66 2.9c.4.69 1.21.93 1.9.57.73-.38.98-1.27.55-2.02l-4.4-7.68-.1-.15L12 35.36z"></path><a xmlns="http://www.w3.org/2000/svg" id="anchor" xlink:href="https://learn.swopstakes.com/en/articles/3791677-free-games-conditions" xmlns:xlink="http://www.w3.org/1999/xlink" target="_top"> <rect x="0" y="0" width="100%" height="100%" fill-opacity="0"/></a></svg>
