<svg height="48" width="48" xmlns="http://www.w3.org/2000/svg"><title>Swopstakes Tips</title><path d="M10.5 40a2516.1 2516.1 0 014.8-12.5l.8-2 1.6-4c.5-1.3.8-2.4.9-3.4 0-1-.2-1.4-.8-1.6l-.6-.2a19.2 19.2 0 00-1.1-.2 103.4 103.4 0 01-2.6.4L12 17c.5.6.7 1.3.7 2.1s-.1 1.6-.4 2.3a52.2 52.2 0 01-1.3 2.9l-1.7 4c-2 4.7-3 6.8-4.3 9.4-.4.8-.7 1.7-1.2 3.4-.3 1.2-.1 2.2.7 3.2.4.6.8.8 1.5.8a12 12 0 003.6-.8l2-.8c-.8-.9-1.2-2.1-1-3.5zM9.3 21l.3-.6.2-1.2c0-.7-.5-1.1-1.2-1-.5.2-1.2.5-1.5.8-1 1-1.8 2-2.6 3l-1.8 2.5a3 3 0 01-.5.5c-.3.3-.6.5-1 .3-.5-.3-.8-.6-.7-1l.8-2.1c2.4-4.6 6.5-7.2 11.5-8.4 1-.3 2.1-.4 3.3-.5.8.1 1.7.2 2.6.5 1.9.7 2.8 2.4 2.7 4.5-.1 1.5-.5 2.9-1 4.2l-6.5 16a10 10 0 00-.6 2c-.2 1 .5 1.6 1.6 1.2 1.1-.5 2-1.3 2.8-2l3.6-3.6c.6-.6.9-.6 1.3-.3s.7.8.3 1.4c-.4.8-.9 1.6-1.5 2.2-3 3.3-6.6 6-10.9 7.5-1.4.6-3 .9-4.5 1-1.7 0-3-.6-4-2a6.3 6.3 0 01-1-5.5c.4-1.4.8-2.8 1.4-4 2.2-4.3 4-8.8 6-13.3l.9-2.1zm7.6-15v.1c0 .5.1.7.2.8.3.7.8 1 2 1.1 1.6.2 3.2-.6 3.8-1.8.6-1 .3-2.3-.4-2.8-.8-.6-1.7-.7-3-.5a3.5 3.5 0 00-2.7 2.8v.4zM14 6c.1-2.8 2.1-5.1 5-5.8a6 6 0 015 .9c2 1.4 2.6 4.1 1.4 6.4a6.7 6.7 0 01-6.7 3.3c-1.9-.2-3.4-1-4.2-2.8L14 6z"></path><a xmlns="http://www.w3.org/2000/svg" id="anchor" xlink:href="https://learn.swopstakes.com/" xmlns:xlink="http://www.w3.org/1999/xlink" target="_top"> <rect x="0" y="0" width="100%" height="100%" fill-opacity="0"/></a></svg>
