<svg height="32" width="32" xmlns="http://www.w3.org/2000/svg"><title>Follow Swopstakes on Twitter</title><path d="M22.4 12.7v.5A9.3 9.3 0 018 21a6.7 6.7 0 004.9-1.3c-1.5 0-2.7-1-3.1-2.3a3.3 3.3 0 001.5 0A3.3 3.3 0 018.6 14c.5.2 1 .4 1.5.4a3.3 3.3 0 01-1-4.4c1.6 2 4 3.3 6.8 3.4a3.3 3.3 0 015.6-3c.7-.1 1.4-.4 2-.8-.2.8-.7 1.4-1.4 1.9.7-.1 1.3-.3 1.9-.6-.4.7-1 1.3-1.6 1.7M16 0a16 16 0 100 32 16 16 0 000-32"></path><a xmlns="http://www.w3.org/2000/svg" id="anchor" xlink:href="https://twitter.com/swopstakes" xmlns:xlink="http://www.w3.org/1999/xlink" target="_top"> <rect x="0" y="0" width="100%" height="100%" fill-opacity="0"/></a></svg>