<svg height="48" width="48" xmlns="http://www.w3.org/2000/svg"><title>Swopstakes Winners</title><path d="M41 5h2.8C45.6 5 47 6.4 47 8.2v7.3c0 3.8-2.9 7-6.6 7.4A16.5 16.5 0 018 18.5v-15C8 2.7 8.7 2 9.5 2h30c.8 0 1.5.7 1.5 1.5V5zm-3 0H11v13.5a13.5 13.5 0 0027 0V5zm6 3h-3v11.7c1.7-.6 3-2.3 3-4.2V8zM29 41h-9c-2 0-3.6 1.2-4.2 3h17.4c-.6-1.8-2.3-3-4.2-3zm6 6H14c-.8 0-1.5-.7-1.5-1.5 0-4.2 3.4-7.5 7.5-7.5h9c4.1 0 7.5 3.3 7.5 7.5 0 .8-.7 1.5-1.5 1.5zM11 5v18H9.5A7.5 7.5 0 012 15.5V8.2C2 6.4 3.4 5 5.2 5H11zM5 8v7.5c0 2 1.3 3.6 3 4.2V8H5zm18 27v3h3v-3h-3zm6-3v9h-9v-9h9zm-4.8-12.5h.6l2.5 1.3-.5-2.7c0-.3 0-.5.2-.7l2-2-2.7-.3a.7.7 0 01-.6-.4l-1.2-2.5-1.2 2.5c-.1.2-.3.4-.6.4l-2.7.4 2 2c.2 0 .2.3.2.6l-.5 2.7 2.5-1.3zm-3 3.2A.7.7 0 0120 22l.6-3.8-2.7-2.7a.7.7 0 01.4-1.2l3.8-.6 1.7-3.4c.2-.6 1-.6 1.2 0l1.7 3.4 3.8.6c.6 0 .9.8.4 1.2l-2.7 2.7.6 3.8c.1.6-.5 1-1 .7L24.5 21l-3.4 1.8z"></path><a xmlns="http://www.w3.org/2000/svg" id="anchor" xlink:href="https://swopstakes.com/results/" xmlns:xlink="http://www.w3.org/1999/xlink" target="_top"> <rect x="0" y="0" width="100%" height="100%" fill-opacity="0"/></a></svg>